<?xml version="1.0" encoding="utf-8"?>
<!-- Generator: Adobe Illustrator 17.0.0, SVG Export Plug-In . SVG Version: 6.00 Build 0)  -->
<!DOCTYPE svg PUBLIC "-//W3C//DTD SVG 1.1//EN" "http://www.w3.org/Graphics/SVG/1.1/DTD/svg11.dtd">
<svg version="1.1" id="Layer_1" xmlns="http://www.w3.org/2000/svg" xmlns:xlink="http://www.w3.org/1999/xlink" x="0px" y="0px"
	 width="16px" height="16px" viewBox="118 64 16 16" enable-background="new 118 64 16 16" xml:space="preserve">
<path fill="#BEBEBE" d="M126.571,67.991h-3.138l-0.005-2.286h-2l0.002,2.286H118v1.714h3.429c0,2.274-2.131,4.101-3.415,5.125
	c-0.02,0.016,1.149,1.43,1.149,1.43c1.281-0.977,2.56-2.228,3.314-3.755c0.391,0.801,0.91,1.558,1.498,2.185l0.746-1.926
	c-0.708-0.878-1.256-1.916-1.256-3.059h2.427L126.571,67.991z M134,78.277l-2.327,0.018l-0.53-1.732h-4.547L126,78.277h-2.286
	l4-10.286H130L134,78.277z M130.571,74.848l-1.714-4.571l-1.714,4.571H130.571z"/>
</svg>
